<svg version="1.2" baseProfile="tiny-ps" xmlns="http://www.w3.org/2000/svg" viewBox="0 0 1200 1200" width="600" height="600">
	<title>diamond_002-ai</title>
	<style>
		tspan { white-space:pre }
		.shp0 { fill: #ffffff } 
	</style>
	<g id="Layer 2">
		<path id="&lt;Compound Path&gt;" fill-rule="evenodd" class="shp0" d="M1125 363.83L616.46 1034.44L594.23 1063.76L572.28 1034.17L75 363.67L302.43 136.24L897.4 136.24L1109.82 348.65L1125 363.83ZM413.69 390.69L594.89 944.85L783.13 390.69L413.69 390.69ZM745.68 341.44L599.92 195.68L454.16 341.44L745.68 341.44ZM851.86 341.44L1032.96 341.44L897.78 206.26L851.86 341.44ZM659.36 185.48L803.78 329.91L852.84 185.48L659.36 185.48ZM346.59 185.48L394.36 331.59L540.47 185.48L346.59 185.48ZM166.88 341.44L345.77 341.44L301.69 206.63L166.88 341.44ZM523.93 886.29L361.88 390.69L156.35 390.69L523.93 886.29ZM1042.83 390.69L835.13 390.69L666.61 886.8L1042.83 390.69Z" />
	</g>
</svg>